<svg xmlns="http://www.w3.org/2000/svg" xmlns:xlink="http://www.w3.org/1999/xlink" version="1.1" width="1000" height="1000" viewBox="0 0 1000 1000" xml:space="preserve">
<desc>Created with Fabric.js 3.5.0</desc>
<defs>
</defs>
<rect x="0" y="0" width="100%" height="100%" fill="#ffffff"/>
<g transform="matrix(0.1328 0 0 0.1328 103.3003 138.5204)" id="107">
<g style="" vector-effect="non-scaling-stroke">
		<g transform="matrix(1 0 0 1 0 24.2218)">
<path style="stroke: none; stroke-width: 1; stroke-dasharray: none; stroke-linecap: butt; stroke-dashoffset: 0; stroke-linejoin: miter; stroke-miterlimit: 4; is-custom-font: none; font-file-url: none; fill: rgb(255,255,255); fill-rule: nonzero; opacity: 1;" transform=" translate(-600, -474.2218)" d="M 695.89407 582.26073 l -191.78809 0 a 2.53308 2.53308 0 0 1 -2.53018 -2.53018 l 0 -211.0175 a 2.53308 2.53308 0 0 1 2.53018 -2.53019 l 191.78809 0 a 2.53307 2.53307 0 0 1 2.53018 2.53018 l 0 211.0175 A 2.53309 2.53309 0 0 1 695.89407 582.26073 Z" stroke-linecap="round"/>
</g>
		<g transform="matrix(1 0 0 1 0 24.2218)">
<path style="stroke: none; stroke-width: 1; stroke-dasharray: none; stroke-linecap: butt; stroke-dashoffset: 0; stroke-linejoin: miter; stroke-miterlimit: 4; is-custom-font: none; font-file-url: none; fill: rgb(63,61,86); fill-rule: nonzero; opacity: 1;" transform=" translate(-600, -474.2218)" d="M 695.89407 582.26073 l -191.78809 0 a 2.53308 2.53308 0 0 1 -2.53018 -2.53018 l 0 -211.0175 a 2.53308 2.53308 0 0 1 2.53018 -2.53019 l 191.78809 0 a 2.53307 2.53307 0 0 1 2.53018 2.53018 l 0 211.0175 A 2.53309 2.53309 0 0 1 695.89407 582.26073 Z M 504.10593 367.195 a 1.51978 1.51978 0 0 0 -1.51811 1.51812 l 0 211.01749 a 1.51978 1.51978 0 0 0 1.51811 1.51812 l 191.78809 0 a 1.51977 1.51977 0 0 0 1.51811 -1.51811 l 0 -211.0175 a 1.51977 1.51977 0 0 0 -1.51811 -1.51811 Z" stroke-linecap="round"/>
</g>
		<g transform="matrix(1 0 0 1 -36.9408 -29.6712)">
<path style="stroke: none; stroke-width: 1; stroke-dasharray: none; stroke-linecap: butt; stroke-dashoffset: 0; stroke-linejoin: miter; stroke-miterlimit: 4; is-custom-font: none; font-file-url: none; fill: rgb(242,242,242); fill-rule: nonzero; opacity: 1;" transform=" translate(-563.0593, -420.3289)" d="M 586.843 446.64279 l -47.5675 0 a 2.53308 2.53308 0 0 1 -2.53018 -2.53018 l 0 -47.5675 a 2.53308 2.53308 0 0 1 2.53018 -2.53018 l 47.5675 0 a 2.53309 2.53309 0 0 1 2.53018 2.53019 l 0 47.56749 A 2.53308 2.53308 0 0 1 586.843 446.64279 Z M 539.27552 395.027 a 1.51978 1.51978 0 0 0 -1.51811 1.51811 l 0 47.5675 a 1.51978 1.51978 0 0 0 1.51811 1.51811 l 47.5675 0 a 1.51978 1.51978 0 0 0 1.51811 -1.51812 l 0 -47.56749 A 1.51977 1.51977 0 0 0 586.843 395.027 Z" stroke-linecap="round"/>
</g>
		<g transform="matrix(1 0 0 1 -50.6038 -23.5987)">
<path style="stroke: none; stroke-width: 1; stroke-dasharray: none; stroke-linecap: butt; stroke-dashoffset: 0; stroke-linejoin: miter; stroke-miterlimit: 4; is-custom-font: none; font-file-url: none; fill: rgb(108,99,255); fill-rule: nonzero; opacity: 1;" transform=" translate(-549.3962, -426.4013)" d="M 573.18 452.46222 l -47.5675 0 a 2.27974 2.27974 0 0 1 -2.27717 -2.27717 l 0 -47.56749 a 2.27974 2.27974 0 0 1 2.27717 -2.27717 l 47.56749 0 a 2.27974 2.27974 0 0 1 2.27717 2.27717 l 0 47.56749 A 2.27973 2.27973 0 0 1 573.18 452.46222 Z" stroke-linecap="round"/>
</g>
		<g transform="matrix(1 0 0 1 -0.0024 23.4628)">
<path style="stroke: none; stroke-width: 1; stroke-dasharray: none; stroke-linecap: butt; stroke-dashoffset: 0; stroke-linejoin: miter; stroke-miterlimit: 4; is-custom-font: none; font-file-url: none; fill: rgb(204,204,204); fill-rule: nonzero; opacity: 1;" transform=" translate(-599.9976, -473.4627)" d="M 674.38746 475.73991 l -148.77492 0 a 2.27717 2.27717 0 1 1 0 -4.55433 l 148.77492 0 a 2.27717 2.27717 0 0 1 0 4.55434 Z" stroke-linecap="round"/>
</g>
		<g transform="matrix(1 0 0 1 -17.9667 39.1499)">
<path style="stroke: none; stroke-width: 1; stroke-dasharray: none; stroke-linecap: butt; stroke-dashoffset: 0; stroke-linejoin: miter; stroke-miterlimit: 4; is-custom-font: none; font-file-url: none; fill: rgb(204,204,204); fill-rule: nonzero; opacity: 1;" transform=" translate(-582.0333, -489.1499)" d="M 638.45883 491.42707 l -112.84629 0 a 2.27717 2.27717 0 1 1 0 -4.55433 l 112.84629 0 a 2.27717 2.27717 0 0 1 0 4.55434 Z" stroke-linecap="round"/>
</g>
		<g transform="matrix(1 0 0 1 40.9914 -34.2255)">
<path style="stroke: none; stroke-width: 1; stroke-dasharray: none; stroke-linecap: butt; stroke-dashoffset: 0; stroke-linejoin: miter; stroke-miterlimit: 4; is-custom-font: none; font-file-url: none; fill: rgb(108,99,255); fill-rule: nonzero; opacity: 1;" transform=" translate(-640.9914, -415.7745)" d="M 673.88141 418.05167 l -65.78483 0 a 2.27717 2.27717 0 0 1 0 -4.55434 l 65.78483 0 a 2.27717 2.27717 0 1 1 0 4.55433 Z" stroke-linecap="round"/>
</g>
		<g transform="matrix(1 0 0 1 32.7802 -18.5383)">
<path style="stroke: none; stroke-width: 1; stroke-dasharray: none; stroke-linecap: butt; stroke-dashoffset: 0; stroke-linejoin: miter; stroke-miterlimit: 4; is-custom-font: none; font-file-url: none; fill: rgb(108,99,255); fill-rule: nonzero; opacity: 1;" transform=" translate(-632.7802, -431.4617)" d="M 657.46375 433.73883 l -49.36716 0 a 2.27717 2.27717 0 0 1 0 -4.55434 l 49.36717 0 a 2.27717 2.27717 0 0 1 0 4.55434 Z" stroke-linecap="round"/>
</g>
		<g transform="matrix(1 0 0 1 0.0024 54.8371)">
<path style="stroke: none; stroke-width: 1; stroke-dasharray: none; stroke-linecap: butt; stroke-dashoffset: 0; stroke-linejoin: miter; stroke-miterlimit: 4; is-custom-font: none; font-file-url: none; fill: rgb(204,204,204); fill-rule: nonzero; opacity: 1;" transform=" translate(-600.0024, -504.837)" d="M 674.38747 507.11421 l -148.77493 0 a 2.27717 2.27717 0 0 1 0 -4.55434 l 148.77493 0 a 2.27717 2.27717 0 1 1 0 4.55433 Z" stroke-linecap="round"/>
</g>
		<g transform="matrix(1 0 0 1 -17.9619 70.5242)">
<path style="stroke: none; stroke-width: 1; stroke-dasharray: none; stroke-linecap: butt; stroke-dashoffset: 0; stroke-linejoin: miter; stroke-miterlimit: 4; is-custom-font: none; font-file-url: none; fill: rgb(204,204,204); fill-rule: nonzero; opacity: 1;" transform=" translate(-582.0381, -520.5242)" d="M 638.45884 522.80137 l -112.84629 0 a 2.27717 2.27717 0 0 1 0 -4.55434 l 112.84628 0 a 2.27717 2.27717 0 1 1 0 4.55433 Z" stroke-linecap="round"/>
</g>
		<g transform="matrix(1 0 0 1 -0.0024 86.2114)">
<path style="stroke: none; stroke-width: 1; stroke-dasharray: none; stroke-linecap: butt; stroke-dashoffset: 0; stroke-linejoin: miter; stroke-miterlimit: 4; is-custom-font: none; font-file-url: none; fill: rgb(204,204,204); fill-rule: nonzero; opacity: 1;" transform=" translate(-599.9976, -536.2114)" d="M 674.38748 538.48852 l -148.77493 0 a 2.27717 2.27717 0 1 1 0 -4.55433 l 148.77493 0 a 2.27717 2.27717 0 0 1 0 4.55434 Z" stroke-linecap="round"/>
</g>
		<g transform="matrix(1 0 0 1 0 101.8985)">
<path style="stroke: none; stroke-width: 1; stroke-dasharray: none; stroke-linecap: butt; stroke-dashoffset: 0; stroke-linejoin: miter; stroke-miterlimit: 4; is-custom-font: none; font-file-url: none; fill: rgb(204,204,204); fill-rule: nonzero; opacity: 1;" transform=" translate(-600, -551.8985)" d="M 674.38748 554.17567 l -148.77493 0 a 2.27716 2.27716 0 0 1 0 -4.55433 l 148.77493 0 a 2.27717 2.27717 0 0 1 0 4.55434 Z" stroke-linecap="round"/>
</g>
		<g transform="matrix(1 0 0 1 -286.481 225.7383)">
<path style="stroke: none; stroke-width: 1; stroke-dasharray: none; stroke-linecap: butt; stroke-dashoffset: 0; stroke-linejoin: miter; stroke-miterlimit: 4; is-custom-font: none; font-file-url: none; fill: rgb(255,255,255); fill-rule: nonzero; opacity: 1;" transform=" translate(-313.519, -675.7383)" d="M 461.58589 675.73821 a 147.99378 147.99378 0 0 1 -93.82 137.75 c -2.17 0.87 -4.38 1.68 -6.6 2.43 q -3.72006 1.275 -7.52 2.34 q -2.64 0.73507 -5.33 1.38 a 148.92061 148.92061 0 0 1 -81.61 -3.48 c -2.07 -0.69 -4.12 -1.43 -6.15 -2.2 c -2.73 -1.05 -5.43 -2.18 -8.08 -3.39 c -0.2 -0.07995 -0.39 -0.17 -0.58 -0.25994 c -1.04 -0.48005 -2.05 -0.96 -3.08 -1.47 h -0.01 q -2.115 -1.02 -4.18994 -2.12 q -4.77007 -2.52 -9.33 -5.37 q -2.37 -1.47006 -4.67 -3.05 a 147.93882 147.93882 0 0 1 53 -267.52 q 3.915 -0.81 7.91 -1.4 c 1.67 -0.26 3.36 -0.48 5.05 -0.67 c 1.21 -0.14 2.42 -0.27 3.65 -0.37 h 0.01 q 4.935 -0.45 9.96 -0.56 c 0.46 -0.01 0.92 -0.02 1.39 -0.03 c 0.26 0 0.52 -0.01 0.78 0 h 0.01 c 0.4 -0.01 0.8 -0.01 1.21 -0.01 c 1.68 0 3.36 0.03 5.03 0.09 q 5.52 0.18 10.92 0.76 c 2.08 0.22 4.13 0.49 6.18 0.79 c 0.23 0.04 0.47 0.07 0.7 0.11 c 0.68 0.11 1.37 0.22 2.05 0.34 c 1.44 0.23 2.87 0.5 4.3 0.79 c 1.34 0.27 2.67 0.55 4 0.85 a 144.12746 144.12746 0 0 1 14.54 4.13 a 148.40967 148.40967 0 0 1 77.94 61.93 q 0.765 1.215 1.5 2.46 c 0.38 0.62 0.74 1.24 1.1 1.87 q 0.195 0.31494 0.36 0.63 c 0.08 0.12 0.14 0.24 0.21 0.36 c 0.66 1.15 1.3 2.32 1.92 3.49 A 147.344 147.344 0 0 1 461.58589 675.73821 Z" stroke-linecap="round"/>
</g>
		<g transform="matrix(1 0 0 1 -286.4722 225.7408)">
<path style="stroke: none; stroke-width: 1; stroke-dasharray: none; stroke-linecap: butt; stroke-dashoffset: 0; stroke-linejoin: miter; stroke-miterlimit: 4; is-custom-font: none; font-file-url: none; fill: rgb(203,203,203); fill-rule: nonzero; opacity: 1;" transform=" translate(-313.5278, -675.7408)" d="M 313.60157 824.74295 A 149.81338 149.81338 0 0 1 266.391 817.1077 c -1.96325 -0.65478 -3.98742 -1.37891 -6.18969 -2.21435 c -2.77833 -1.06836 -5.51587 -2.2168 -8.14075 -3.41553 c -0.17481 -0.06885 -0.38233 -0.166 -0.58985 -0.26416 c -0.99536 -0.45947 -1.96862 -0.92139 -2.95837 -1.41016 l -0.14062 -0.06445 c -1.40418 -0.67676 -2.82532 -1.396 -4.22388 -2.13672 c -3.18518 -1.68311 -6.34546 -3.502 -9.392 -5.40576 c -1.58533 -0.9834 -3.16968 -2.01856 -4.7063 -3.07422 a 148.939 148.939 0 0 1 53.36511 -269.32373 c 2.61817 -0.5415 5.29847 -1.01563 7.96521 -1.40967 c 1.57959 -0.2456 3.29285 -0.47314 5.08435 -0.67432 c 1.218 -0.14111 2.43921 -0.272 3.68067 -0.373 c 3.29529 -0.29932 6.66943 -0.48926 10.02905 -0.56348 l 1.65943 -0.03174 c 0.19006 -0.00293 0.38012 -0.00439 0.57019 0.00244 c 0.356 -0.01025 0.764 -0.01025 1.18237 -0.01025 c 1.69189 0 3.39636 0.03027 5.066 0.09033 c 3.68835 0.12061 7.38733 0.37793 10.99084 0.76514 c 1.90808 0.20166 3.94239 0.46191 6.2179 0.79492 l 0.96142 0.15234 c 0.60462 0.09717 1.21509 0.19581 1.81775 0.30225 c 1.29676 0.207 2.67615 0.46045 4.32483 0.79492 c 1.34632 0.27149 2.68384 0.55274 4.02149 0.85449 a 145.76106 145.76106 0 0 1 14.64294 4.15918 a 149.83 149.83 0 0 1 78.46546 62.34766 q 0.76885 1.22022 1.51257 2.48047 c 0.37671 0.61377 0.74182 1.24268 1.10693 1.88184 c 0.11719 0.188 0.24036 0.40283 0.355 0.61914 c 0.05591 0.08789 0.10535 0.17529 0.15418 0.26318 l 0.05676 0.10059 c 0.62842 1.09521 1.26184 2.24609 1.93958 3.5249 A 149.04437 149.04437 0 0 1 368.132 814.41874 c -2.1178 0.84912 -4.356 1.67334 -6.646 2.44677 c -2.48 0.8501 -5.02832 1.64307 -7.57019 2.35547 c -1.76025 0.49024 -3.5653 0.958 -5.36657 1.39014 A 149.98972 149.98972 0 0 1 313.60157 824.74295 Z M 249.0348 807.83817 h 0.00525 l 0.21985 0.104 c 1.02148 0.50586 2.02344 0.98194 3.05505 1.458 c 0.18177 0.08594 0.35266 0.16748 0.53272 0.23975 c 2.63147 1.20019 5.33105 2.333 8.06714 3.38476 c 2.17248 0.82422 4.17175 1.53955 6.10754 2.18506 a 147.78957 147.78957 0 0 0 81.06055 3.45606 c 1.77771 -0.42627 3.5592 -0.8877 5.29467 -1.3711 c 2.50391 -0.70166 5.01575 -1.4834 7.46412 -2.32226 c 2.25927 -0.76367 4.46228 -1.57471 6.552 -2.4126 a 146.16143 146.16143 0 0 0 93.19214 -136.82178 v -0.00146 A 146.85209 146.85209 0 0 0 443.453 606.8079 c -0.6676 -1.26026 -1.2904 -2.39209 -1.90441 -3.46143 l -0.07386 -0.13135 c -0.03161 -0.05664 -0.06225 -0.11425 -0.10022 -0.1709 l -0.05444 -0.09179 q -0.14868 -0.28346 -0.32434 -0.56787 c -0.3728 -0.65088 -0.72766 -1.26221 -1.10217 -1.873 c -0.49378 -0.83643 -0.98877 -1.64844 -1.49366 -2.44971 a 147.82666 147.82666 0 0 0 -77.41748 -61.51709 a 143.54627 143.54627 0 0 0 -14.43884 -4.10107 c -1.32031 -0.29834 -2.64282 -0.57666 -3.9751 -0.84473 c -1.62207 -0.3291 -2.97546 -0.57763 -4.26025 -0.7832 c -0.60913 -0.10742 -1.20972 -0.2041 -1.80457 -0.30029 l -0.95923 -0.15186 c -2.22216 -0.32471 -4.23071 -0.58154 -6.11376 -0.78076 c -3.55591 -0.38233 -7.205 -0.63623 -10.84729 -0.75488 c -1.64917 -0.05957 -3.32947 -0.08936 -4.99744 -0.08936 c -0.40686 0.00147 -0.7937 0 -1.18555 0.00928 c -0.22851 -0.00586 -0.38537 -0.00391 -0.54187 -0.002 l -1.64136 0.03223 c -3.31311 0.07276 -6.641 0.25977 -9.8905 0.55615 l -0.10071 0.00391 c -1.13745 0.0957 -2.33618 0.22461 -3.535 0.36328 c -1.767 0.19873 -3.45178 0.42236 -5.01123 0.665 c -2.63672 0.38965 -5.27905 0.85693 -7.86133 1.39111 a 146.93877 146.93877 0 0 0 -52.64282 265.71192 c 1.5177 1.043 3.07568 2.06054 4.63745 3.02929 c 3.00854 1.87989 6.12646 3.67481 9.27014 5.33545 C 246.39222 806.52811 247.72023 807.20145 249.0348 807.83817 Z" stroke-linecap="round"/>
</g>
		<g transform="matrix(1 0 0 1 -198.4775 186.5326)">
<path style="stroke: none; stroke-width: 1; stroke-dasharray: none; stroke-linecap: butt; stroke-dashoffset: 0; stroke-linejoin: miter; stroke-miterlimit: 4; is-custom-font: none; font-file-url: none; fill: rgb(159,97,106); fill-rule: nonzero; opacity: 1;" transform=" translate(-401.5225, -636.5326)" d="M 440.23225 643.60145 a 18.17163 18.17163 0 0 1 -27.83783 1.20739 l -39.04708 14.13061 L 358.97281 637.305 l 55.4223 -19.18069 a 18.2701 18.2701 0 0 1 25.83714 25.47711 Z" stroke-linecap="round"/>
</g>
		<g transform="matrix(1 0 0 1 -234.7799 195.3206)">
<polygon style="stroke: none; stroke-width: 1; stroke-dasharray: none; stroke-linecap: butt; stroke-dashoffset: 0; stroke-linejoin: miter; stroke-miterlimit: 4; is-custom-font: none; font-file-url: none; fill: rgb(204,204,204); fill-rule: nonzero; opacity: 1;" points="-47,0.295 33.444,-26.295 47,3.295 -28,26.295 -47,0.295 "/>
</g>
		<g transform="matrix(1 0 0 1 -292.4891 327.9182)">
<path style="stroke: none; stroke-width: 1; stroke-dasharray: none; stroke-linecap: butt; stroke-dashoffset: 0; stroke-linejoin: miter; stroke-miterlimit: 4; is-custom-font: none; font-file-url: none; fill: rgb(47,46,65); fill-rule: nonzero; opacity: 1;" transform=" translate(-307.5109, -777.9182)" d="M 348.3159 819.63817 a 148.92071 148.92071 0 0 1 -81.61 -3.48 l 1.8 -17.02 l 1.67 -15.9 l 25.05 -38.73 l 8.03 -12.41 l 33.09 12.03 l 3.37 21.25 l 5.37 33.89 Z" stroke-linecap="round"/>
</g>
		<g transform="matrix(1 0 0 1 -293.0641 336.4183)">
<path style="stroke: none; stroke-width: 1; stroke-dasharray: none; stroke-linecap: butt; stroke-dashoffset: 0; stroke-linejoin: miter; stroke-miterlimit: 4; is-custom-font: none; font-file-url: none; fill: rgb(47,46,65); fill-rule: nonzero; opacity: 1;" transform=" translate(-306.9359, -786.4182)" d="M 367.76588 813.48821 c -2.17 0.87 -4.38 1.68 -6.6 2.43 q -3.72006 1.275 -7.52 2.34 q -2.64 0.73507 -5.33 1.38 a 148.92061 148.92061 0 0 1 -81.61 -3.48 c -2.07 -0.69 -4.12 -1.43 -6.15 -2.2 a 115.18494 115.18494 0 0 1 -0.54 17.75 a 209.8182 209.8182 0 0 1 -7.54 -21.14 c -0.15 -0.48 -0.29 -0.96 -0.43 -1.43994 c -0.7 -2.42 -1.32 -4.73 -1.88 -6.9 c -0.64 -2.51 -1.19 -4.84 -1.65 -6.97 c -1.83 -8.36 -2.41 -13.53 -2.41 -13.53 l 19.55 -40.6 l 3.91 0.44995 l 1.62 0.18 l 9.8 1.12 l 14.24 1.63 l 23.07 2.63 l 21.42 18.24 l 19.19 16.35 s 1.6 5.44 4.11 14.45 C 364.37589 801.01818 365.98588 806.88817 367.76588 813.48821 Z" stroke-linecap="round"/>
</g>
		<g transform="matrix(1 0 0 1 -294.2136 58.8284)">
<circle style="stroke: none; stroke-width: 1; stroke-dasharray: none; stroke-linecap: butt; stroke-dashoffset: 0; stroke-linejoin: miter; stroke-miterlimit: 4; is-custom-font: none; font-file-url: none; fill: rgb(159,97,106); fill-rule: nonzero; opacity: 1;" cx="0" cy="0" r="34.59063"/>
</g>
		<g transform="matrix(1 0 0 1 -297.4604 229.4128)">
<path style="stroke: none; stroke-width: 1; stroke-dasharray: none; stroke-linecap: butt; stroke-dashoffset: 0; stroke-linejoin: miter; stroke-miterlimit: 4; is-custom-font: none; font-file-url: none; fill: rgb(204,204,204); fill-rule: nonzero; opacity: 1;" transform=" translate(-302.5396, -679.4128)" d="M 329.86482 581.69768 S 321.55128 556 302 556 c -4.88782 0 -12.77558 0.4051 -19.188 4.58949 c -25.81559 16.84586 -41.52066 45.48033 -42.72388 76.28259 l -6.011 153.88126 s 33.08668 12.0315 45.11822 7.51972 s 24.063 -34.59064 24.063 -34.59064 s -3.00787 40.60639 9.02364 39.10248 s 57.14973 -4.51184 58.65367 -10.52759 s -23.02365 -135.36249 -23.02365 -135.36249 Z" stroke-linecap="round"/>
</g>
		<g transform="matrix(1 0 0 1 -288.3885 41.7454)">
<path style="stroke: none; stroke-width: 1; stroke-dasharray: none; stroke-linecap: butt; stroke-dashoffset: 0; stroke-linejoin: miter; stroke-miterlimit: 4; is-custom-font: none; font-file-url: none; fill: rgb(47,46,65); fill-rule: nonzero; opacity: 1;" transform=" translate(-311.6115, -491.7453)" d="M 288.97048 518.96965 c 3.10315 -0.18516 6.13318 0.86354 9.21479 1.27266 c 11.02521 1.46376 22.49477 -6.53667 24.92915 -17.38893 a 13.34245 13.34245 0 0 1 1.275 -4.15438 c 1.69684 -2.7704 5.56127 -3.29857 8.74692 -2.66152 s 6.20538 2.128 9.44965 2.29824 c 5.0092 0.26285 9.81827 -2.821 12.4879 -7.06775 s 3.42545 -9.47228 3.06507 -14.47543 l -2.40137 2.52035 a 12.19712 12.19712 0 0 1 -1.08734 -6.62906 a 7.69249 7.69249 0 0 0 -7.28634 1.86444 c -2.11744 0.22535 -0.51934 -3.92751 -2.09246 -5.36269 a 3.63926 3.63926 0 0 0 -2.56027 -0.479 c -4.50463 0.04342 -8.14865 -3.402 -11.69839 -6.17564 a 49.71109 49.71109 0 0 0 -20.99555 -9.5769 c -5.08664 -0.99214 -10.49557 -1.15155 -15.3195 0.74258 c -3.96165 1.55555 -7.2776 4.3887 -10.3455 7.33868 c -7.55234 7.26208 -14.24 15.79477 -17.382 25.79 a 43.41522 43.41522 0 0 0 -0.20792 25.17486 c 1.266 4.273 5.08151 18.90689 10.66729 19.24769 C 284.44827 531.67605 280.23433 519.4909 288.97048 518.96965 Z" stroke-linecap="round"/>
</g>
		<g transform="matrix(1 0 0 1 -319.7984 263.5501)">
<polygon style="stroke: none; stroke-width: 1; stroke-dasharray: none; stroke-linecap: butt; stroke-dashoffset: 0; stroke-linejoin: miter; stroke-miterlimit: 4; is-custom-font: none; font-file-url: none; fill: rgb(0,0,0); fill-rule: nonzero; opacity: 0.1;" points="23.3745,-86.3105 -12.0465,-34.3595 -23.3745,86.3105 23.3745,-86.3105 "/>
</g>
		<g transform="matrix(0.5808 -0.814 0.814 0.5808 -147.1087 144.908)">
<ellipse style="stroke: none; stroke-width: 1; stroke-dasharray: none; stroke-linecap: butt; stroke-dashoffset: 0; stroke-linejoin: miter; stroke-miterlimit: 4; is-custom-font: none; font-file-url: none; fill: rgb(63,61,86); fill-rule: nonzero; opacity: 1;" cx="0" cy="0" rx="2.6424" ry="0.99091"/>
</g>
		<g transform="matrix(1 0 0 1 -171.679 169.0257)">
<path style="stroke: none; stroke-width: 1; stroke-dasharray: none; stroke-linecap: butt; stroke-dashoffset: 0; stroke-linejoin: miter; stroke-miterlimit: 4; is-custom-font: none; font-file-url: none; fill: rgb(108,99,255); fill-rule: nonzero; opacity: 1;" transform=" translate(-428.3211, -619.0257)" d="M 406.46151 651.4522 h 0 a 4.62419 4.62419 0 0 1 -1.07851 -6.45 h 0 l 40.28636 -56.46421 a 4.62418 4.62418 0 0 1 6.45 -1.07854 h 0 l -45.65789 63.9928 Z" stroke-linecap="round"/>
</g>
		<g transform="matrix(1 0 0 1 -168.8952 170.847)">
<path style="stroke: none; stroke-width: 1; stroke-dasharray: none; stroke-linecap: butt; stroke-dashoffset: 0; stroke-linejoin: miter; stroke-miterlimit: 4; is-custom-font: none; font-file-url: none; fill: rgb(47,46,65); fill-rule: nonzero; opacity: 1;" transform=" translate(-431.1048, -620.847)" d="M 408.11562 657.09573 l -2.331 -1.66311 a 3.7425 3.7425 0 0 1 -0.87291 -5.22023 l 45.8693 -64.28921 a 3.16 3.16 0 0 1 4.40763 -0.73706 l 0 0 l 2.80521 2.00147 h 0 L 408.1156 657.09572 h 0 Z" stroke-linecap="round"/>
</g>
		<g transform="matrix(0.5808 -0.814 0.814 0.5808 -151.6011 144.9487)">
<rect style="stroke: none; stroke-width: 1; stroke-dasharray: none; stroke-linecap: butt; stroke-dashoffset: 0; stroke-linejoin: miter; stroke-miterlimit: 4; is-custom-font: none; font-file-url: none; fill: rgb(208,205,225); fill-rule: nonzero; opacity: 1;" x="-2.6424" y="-0.6606" rx="0" ry="0" width="5.2848" height="1.3212"/>
</g>
		<g transform="matrix(0.5808 -0.814 0.814 0.5808 -155.8215 150.864)">
<rect style="stroke: none; stroke-width: 1; stroke-dasharray: none; stroke-linecap: butt; stroke-dashoffset: 0; stroke-linejoin: miter; stroke-miterlimit: 4; is-custom-font: none; font-file-url: none; fill: rgb(208,205,225); fill-rule: nonzero; opacity: 1;" x="-2.6424" y="-0.6606" rx="0" ry="0" width="5.2848" height="1.3212"/>
</g>
		<g transform="matrix(1 0 0 1 -350.0058 355.0833)">
<path style="stroke: none; stroke-width: 1; stroke-dasharray: none; stroke-linecap: butt; stroke-dashoffset: 0; stroke-linejoin: miter; stroke-miterlimit: 4; is-custom-font: none; font-file-url: none; fill: rgb(159,97,106); fill-rule: nonzero; opacity: 1;" transform=" translate(-249.9942, -805.0833)" d="M 264.86791 839.22207 a 18.17162 18.17162 0 0 0 -6.8889 -26.999 l 2.24361 -41.46462 l -24.8654 -7.50915 l -2.346 58.60057 a 18.2701 18.2701 0 0 0 31.85667 17.3722 Z" stroke-linecap="round"/>
</g>
		<g transform="matrix(1 0 0 1 -338.5005 241.2452)">
<path style="stroke: none; stroke-width: 1; stroke-dasharray: none; stroke-linecap: butt; stroke-dashoffset: 0; stroke-linejoin: miter; stroke-miterlimit: 4; is-custom-font: none; font-file-url: none; fill: rgb(204,204,204); fill-rule: nonzero; opacity: 1;" transform=" translate(-261.4995, -691.2452)" d="M 264.73548 805.11551 H 228.76283 l -9.89819 -110.80468 l 0.03393 -0.10059 l 33.66919 -98.88281 a 26.49019 26.49019 0 1 1 48.2356 21.39844 l -39.61768 71.34667 Z" stroke-linecap="round"/>
</g>
		<g transform="matrix(1 0 0 1 286.4504 -125.2807)">
<path style="stroke: none; stroke-width: 1; stroke-dasharray: none; stroke-linecap: butt; stroke-dashoffset: 0; stroke-linejoin: miter; stroke-miterlimit: 4; is-custom-font: none; font-file-url: none; fill: rgb(255,255,255); fill-rule: nonzero; opacity: 1;" transform=" translate(-886.4504, -324.7193)" d="M 1034.58589 324.58179 a 148.13535 148.13535 0 1 1 -151.39 -147.96 c 0.46 -0.01 0.92 -0.02 1.39 -0.03 c 0.66 -0.01 1.33 -0.01 2 -0.01 c 1.68 0 3.36 0.03 5.03 0.09 q 5.52 0.18 10.92 0.76 c 2.08 0.22 4.13 0.49 6.18 0.79 c 0.23 0.04 0.47 0.07 0.7 0.11 a 146.19769 146.19769 0 0 1 24.89 6.11 A 148.07727 148.07727 0 0 1 1034.58589 324.58179 Z" stroke-linecap="round"/>
</g>
		<g transform="matrix(1 0 0 1 286.4506 -125.2826)">
<path style="stroke: none; stroke-width: 1; stroke-dasharray: none; stroke-linecap: butt; stroke-dashoffset: 0; stroke-linejoin: miter; stroke-miterlimit: 4; is-custom-font: none; font-file-url: none; fill: rgb(203,203,203); fill-rule: nonzero; opacity: 1;" transform=" translate(-886.4506, -324.7174)" d="M 886.44813 473.85672 c -82.17139 0.00391 -149.05542 -66.80615 -149.13281 -148.99462 A 149.136 149.136 0 0 1 883.174 175.62186 l 1.39014 -0.03027 c 2.35547 -0.03369 4.75244 -0.00342 7.08764 0.08056 c 3.68433 0.12061 7.38331 0.37793 10.991 0.76563 c 1.90991 0.20166 3.94458 0.46191 6.21826 0.79492 l 0.72632 0.11377 a 148.83466 148.83466 0 0 1 125.99854 147.23535 v -0.001 c 0.07763 82.23339 -66.76123 149.19824 -148.99463 149.27587 Z m 0.12207 -296.2749 c -0.65991 0 -1.31982 0 -1.96948 0.00977 l -1.38257 0.03027 c -79.42334 1.74512 -143.97778 67.79639 -143.90283 147.23828 c 0.07641 81.08106 66.07007 146.99268 147.13281 146.99658 h 0.14111 c 81.13062 -0.07666 147.073 -66.14355 146.99659 -147.27392 v -0.001 A 146.83525 146.83525 0 0 0 909.26356 179.3201 l -0.719 -0.11279 c -2.22046 -0.32519 -4.229 -0.582 -6.11377 -0.78076 c -3.56031 -0.38281 -7.20923 -0.63672 -10.84766 -0.75537 c -1.64892 -0.05957 -3.3291 -0.08936 -4.99731 -0.08936 Z" stroke-linecap="round"/>
</g>
		<g transform="matrix(0.535 -0.8449 0.8449 0.535 171.1077 -118.8427)">
<ellipse style="stroke: none; stroke-width: 1; stroke-dasharray: none; stroke-linecap: butt; stroke-dashoffset: 0; stroke-linejoin: miter; stroke-miterlimit: 4; is-custom-font: none; font-file-url: none; fill: rgb(63,61,86); fill-rule: nonzero; opacity: 1;" cx="0" cy="0" rx="0.99091" ry="2.64239"/>
</g>
		<g transform="matrix(1 0 0 1 202.5805 -106.0794)">
<path style="stroke: none; stroke-width: 1; stroke-dasharray: none; stroke-linecap: butt; stroke-dashoffset: 0; stroke-linejoin: miter; stroke-miterlimit: 4; is-custom-font: none; font-file-url: none; fill: rgb(108,99,255); fill-rule: nonzero; opacity: 1;" transform=" translate(-802.5805, -343.9207)" d="M 769.01443 323.96733 h 0 a 4.62418 4.62418 0 0 1 6.3807 -1.43283 h 0 l 58.60127 37.10913 a 4.62418 4.62418 0 0 1 1.43279 6.38071 h 0 l -66.41476 -42.057 Z" stroke-linecap="round"/>
</g>
		<g transform="matrix(1 0 0 1 200.8042 -103.2879)">
<path style="stroke: none; stroke-width: 1; stroke-dasharray: none; stroke-linecap: butt; stroke-dashoffset: 0; stroke-linejoin: miter; stroke-miterlimit: 4; is-custom-font: none; font-file-url: none; fill: rgb(47,46,65); fill-rule: nonzero; opacity: 1;" transform=" translate(-800.8042, -346.7121)" d="M 763.47094 325.93028 l 1.84361 -2.91134 a 3.16 3.16 0 0 1 4.36025 -0.97915 l 0 0 l 66.72236 42.25188 a 3.74249 3.74249 0 0 1 1.15964 5.1641 l -1.532 2.4192 h 0 l -72.55392 -45.94471 Z" stroke-linecap="round"/>
</g>
		<g transform="matrix(0.535 -0.8449 0.8449 0.535 175.284 -120.4987)">
<rect style="stroke: none; stroke-width: 1; stroke-dasharray: none; stroke-linecap: butt; stroke-dashoffset: 0; stroke-linejoin: miter; stroke-miterlimit: 4; is-custom-font: none; font-file-url: none; fill: rgb(208,205,225); fill-rule: nonzero; opacity: 1;" x="-0.6606" y="-2.6424" rx="0" ry="0" width="1.3212" height="5.2848"/>
</g>
		<g transform="matrix(0.535 -0.8449 0.8449 0.535 181.4232 -116.611)">
<rect style="stroke: none; stroke-width: 1; stroke-dasharray: none; stroke-linecap: butt; stroke-dashoffset: 0; stroke-linejoin: miter; stroke-miterlimit: 4; is-custom-font: none; font-file-url: none; fill: rgb(208,205,225); fill-rule: nonzero; opacity: 1;" x="-0.6606" y="-2.6424" rx="0" ry="0" width="1.3212" height="5.2848"/>
</g>
		<g transform="matrix(1 0 0 1 286.9812 -299.8347)">
<circle style="stroke: none; stroke-width: 1; stroke-dasharray: none; stroke-linecap: butt; stroke-dashoffset: 0; stroke-linejoin: miter; stroke-miterlimit: 4; is-custom-font: none; font-file-url: none; fill: rgb(255,184,184); fill-rule: nonzero; opacity: 1;" cx="0" cy="0" r="41.65187"/>
</g>
		<g transform="matrix(1 0 0 1 276.0144 -34.564)">
<path style="stroke: none; stroke-width: 1; stroke-dasharray: none; stroke-linecap: butt; stroke-dashoffset: 0; stroke-linejoin: miter; stroke-miterlimit: 4; is-custom-font: none; font-file-url: none; fill: rgb(47,46,65); fill-rule: nonzero; opacity: 1;" transform=" translate(-876.0144, -415.436)" d="M 926.64588 467.10175 a 148.69439 148.69439 0 0 1 -101.75 -7.95 l 3.2 -85.5 l 0.24 -6.65 l 0.09 -2.16 l 0.11 -3.18 l 0.08 -2.03 s 0.13 -0.01 0.38 -0.02 c 0.68005 -0.05 2.25 -0.16 4.5 -0.29 c 2.61 -0.15 6.12 -0.34 10.21 -0.51 c 0.97 -0.04 1.97 -0.08 3 -0.13 c 21.54 -0.8 55.18 -0.97 59.63 5.52 l 0.56 3.82 l 0.9 6.17 l 1.84 12.61 S 930.55586 428.4018 926.64588 467.10175 Z" stroke-linecap="round"/>
</g>
		<g transform="matrix(1 0 0 1 280.5051 -160.558)">
<path style="stroke: none; stroke-width: 1; stroke-dasharray: none; stroke-linecap: butt; stroke-dashoffset: 0; stroke-linejoin: miter; stroke-miterlimit: 4; is-custom-font: none; font-file-url: none; fill: rgb(204,204,204); fill-rule: nonzero; opacity: 1;" transform=" translate(-880.505, -289.442)" d="M 937.2201 251.4591 L 929.01637 327.239 L 913.39185 361.7999 l -5.79058 12.81561 l -83.81171 -1.0159 l 8.63513 -58.41421 C 820.2339 283.69251 849.187 270.99378 849.187 270.99378 L 879.2201 209.4591 s 8 -4 28.8891 -5.00675 c 19.41939 -0.93591 4.1109 2.00675 4.1109 2.00675 C 937.61757 203.9193 937.2201 251.4591 937.2201 251.4591 Z" stroke-linecap="round"/>
</g>
		<g transform="matrix(1 0 0 1 299.785 -152.155)">
<path style="stroke: none; stroke-width: 1; stroke-dasharray: none; stroke-linecap: butt; stroke-dashoffset: 0; stroke-linejoin: miter; stroke-miterlimit: 4; is-custom-font: none; font-file-url: none; fill: rgb(0,0,0); fill-rule: nonzero; opacity: 0.2;" transform=" translate(-899.785, -297.845)" d="M 912.01637 331.239 l -15.62452 34.56088 c -5.01849 -9.3869 -8.83825 -20.01828 -8.83825 -26.29654 c 0 -17.27029 17.27026 -8.1272 17.27026 -8.1272 s -13.96863 -76.44642 -13.96863 -99.30417 C 890.85523 216.88933 903.51325 284.26886 912.01637 331.239 Z" stroke-linecap="round"/>
</g>
		<g transform="matrix(1 0 0 1 283.4504 -331.5725)">
<path style="stroke: none; stroke-width: 1; stroke-dasharray: none; stroke-linecap: butt; stroke-dashoffset: 0; stroke-linejoin: miter; stroke-miterlimit: 4; is-custom-font: none; font-file-url: none; fill: rgb(47,46,65); fill-rule: nonzero; opacity: 1;" transform=" translate(-883.4504, -118.4275)" d="M 934.98475 124.78948 a 46.68432 46.68432 0 0 0 -12.25195 -17.25189 a 9.10839 9.10839 0 0 0 5.12353 -4.31677 c 1.60328 -3.1734 0.75391 -7.153 -1.42578 -9.99329 a 18.1924 18.1924 0 0 0 -7.46313 -5.37067 a 14.751 14.751 0 0 0 6.79565 1.30732 c 2.83277 -0.29462 5.665 -2.51795 5.49683 -5.27643 c -0.16016 -2.62793 -2.74536 -4.40491 -5.06543 -5.77631 q -2.2577 -1.33448 -4.51538 -2.66882 a 23.51294 23.51294 0 0 0 1.17578 -2.66828 a 18.50912 18.50912 0 0 0 -4.00366 -19.68774 c 4.92895 5.01764 3.67016 12.78314 -1.19947 19.085 c -0.157 0.20307 -0.32568 0.40112 -0.48876 0.60156 q -1.44727 -0.85546 -2.89454 -1.71087 c -2.40649 -1.42237 -4.9082 -2.878 -7.70312 -3.21344 s -5.97925 0.771 -7.12036 3.26434 c -1.22144 2.66889 0.16748 6.07477 -1.42432 8.5528 c -1.39282 2.16833 -4.4331 2.63 -7.0686 2.52734 c -2.63526 -0.10272 -5.437 -0.519 -7.78174 0.64661 c -3.25952 1.62036 -4.3291 6.0025 -2.8794 9.27057 a 9.85028 9.85028 0 0 0 2.80567 3.56909 c -6.97632 0.97406 -13.84717 3.04559 -20.59912 5.15234 c -7.96167 2.48432 -16.07178 5.12305 -22.72559 10.15155 c -6.654 5.0285 -11.69507 12.96619 -11.061 21.28241 s 8.89575 21.41425 17.12939 20.08472 l 1.25342 -3.92432 a 26.47649 26.47649 0 0 1 30.27832 5.3833 c 0.095 -5.2359 8.06445 -6.97546 12.03564 -3.56177 s 4.73731 9.18525 5.04517 14.413 c 0.30786 5.22772 0.59961 10.9198 4.04321 14.865 c 3.30518 3.7865 8.93531 4.96051 13.833 3.83252 c 4.898 -1.12805 9.13184 -4.23505 12.63916 -7.835 C 937.69276 162.46294 941.7909 141.706 934.98475 124.78948 Z" stroke-linecap="round"/>
</g>
		<g transform="matrix(1 0 0 1 272.2728 -96.2777)">
<path style="stroke: none; stroke-width: 1; stroke-dasharray: none; stroke-linecap: butt; stroke-dashoffset: 0; stroke-linejoin: miter; stroke-miterlimit: 4; is-custom-font: none; font-file-url: none; fill: rgb(255,184,184); fill-rule: nonzero; opacity: 1;" transform=" translate(-872.2729, -353.7224)" d="M 802.13413 368.59609 a 18.1716 18.1716 0 0 0 26.999 -6.88889 l 113.46462 2.2436 l 7.50916 -24.86539 l -130.60057 -2.346 a 18.2701 18.2701 0 0 0 -17.3722 31.85667 Z" stroke-linecap="round"/>
</g>
		<g transform="matrix(1 0 0 1 325.9571 -156.4475)">
<path style="stroke: none; stroke-width: 1; stroke-dasharray: none; stroke-linecap: butt; stroke-dashoffset: 0; stroke-linejoin: miter; stroke-miterlimit: 4; is-custom-font: none; font-file-url: none; fill: rgb(204,204,204); fill-rule: nonzero; opacity: 1;" transform=" translate(-925.9571, -293.5525)" d="M 912.44306 202.35691 s -26.41339 2.0318 -26.41339 24.88954 s 23.87366 104.12968 23.87366 104.12968 s -17.27026 -9.14309 -17.27026 8.1272 s 28.95312 67.55731 32.00085 34.03262 c 0 0 43.68365 21.3339 41.144 -18.79412 s -29.969 -124.95563 -29.969 -124.95563 S 932.76106 200.83306 912.44306 202.35691 Z" stroke-linecap="round"/>
</g>
</g>
</g>
</svg>